<?xml version="1.0" encoding="UTF-8"?>
<svg xmlns="http://www.w3.org/2000/svg" xmlns:xlink="http://www.w3.org/1999/xlink" viewBox="0 0 50 50" version="1.1" width="50px" height="50px">
<g id="surface1">
<path style="fill: #fff; " d="M 9 46 C 8.550781 46 8.15625 45.699219 8.035156 45.265625 C 7.914063 44.835938 8.101563 44.375 8.484375 44.144531 C 10.625 42.859375 11.480469 40.894531 11.140625 38 L 7 38 C 4.242188 38 2 35.757813 2 33 L 2 9 C 2 6.242188 4.242188 4 7 4 L 43 4 C 45.757813 4 48 6.242188 48 9 L 48 33 C 48 35.757813 45.757813 38 43 38 L 20.683594 38 C 17.707031 45.203125 11.558594 46 9 46 Z "/>
</g>
</svg>
